<?xml version="1.0" encoding="utf-8"?>
<!-- Generator: Adobe Illustrator 16.0.3, SVG Export Plug-In . SVG Version: 6.00 Build 0)  -->
<!DOCTYPE svg PUBLIC "-//W3C//DTD SVG 1.1//EN" "http://www.w3.org/Graphics/SVG/1.1/DTD/svg11.dtd">
<svg version="1.1" id="Izolovaný_režim" xmlns="http://www.w3.org/2000/svg" xmlns:xlink="http://www.w3.org/1999/xlink" x="0px"
	 y="0px" width="806.9px" height="459px" viewBox="-153.2 -174.4 806.9 459" enable-background="new -153.2 -174.4 806.9 459"
	 xml:space="preserve">
<rect x="-152.8" y="-174.4" fill="#302F33" width="806" height="459"/>
<g>
	<g>
		<path fill="#FFFFFF" d="M165.1,80.6h-15.8V40.5l-17.8,29.3h-1.8l-17.8-29.2v40.1H96.1v-69h15.8l18.7,30.6l18.7-30.6h15.8V80.6
			L165.1,80.6z"/>
		<path fill="#FFFFFF" d="M225.5,31.4v49.2h-14.8V76c-3.3,3.7-8.1,6-14.7,6c-12.9,0-23.5-11.3-23.5-26c0-14.7,10.6-26,23.5-26
			c6.6,0,11.4,2.3,14.7,6v-4.6H225.5z M210.7,56c0-7.4-4.9-12-11.7-12s-11.7,4.6-11.7,12c0,7.4,4.9,12,11.7,12S210.7,63.4,210.7,56z
			"/>
		<path fill="#FFFFFF" d="M282.1,50.4v30.2h-14.8V52.5c0-6.1-3.8-9-8.6-9c-5.4,0-9.2,3.2-9.2,10.1v26.9h-14.8V31.4h14.8V36
			c2.7-3.6,7.6-6,14.1-6C273.6,30,282.1,37.1,282.1,50.4z"/>
		<path fill="#FFFFFF" d="M341.3,31.4v46.8c0,16.5-12.9,23.5-26,23.5c-10.2,0-18.8-3.8-23.3-11.9l12.6-7.3c1.9,3.4,4.7,6.2,11.2,6.2
			c6.9,0,11.1-3.5,11.1-10.5v-4.5c-3.2,4-8,6.4-14.4,6.4c-14,0-24.2-11.4-24.2-25c0-13.6,10.2-25,24.2-25c6.4,0,11.1,2.4,14.4,6.4
			v-5L341.3,31.4L341.3,31.4z M326.9,55c0-6.8-4.9-11.4-11.9-11.4s-11.9,4.6-11.9,11.4c0,6.8,4.9,11.4,11.9,11.4
			S326.9,61.8,326.9,55z"/>
		<path fill="#FFFFFF" d="M348.2,56c0-14.7,11.6-26,26.1-26s26.1,11.3,26.1,26c0,14.7-11.6,26-26.1,26S348.2,70.7,348.2,56z
			 M385.6,56c0-7-4.9-11.6-11.3-11.6S363,49,363,56s4.9,11.6,11.3,11.6S385.6,63,385.6,56z"/>
		<path fill="#FFFFFF" d="M404.8,56c0-14.7,11.6-26,26.1-26S457,41.3,457,56c0,14.7-11.6,26-26.1,26C416.5,82,404.8,70.7,404.8,56z
			 M442.3,56c0-7-4.9-11.6-11.3-11.6S419.7,49,419.7,56s4.9,11.6,11.3,11.6C437.3,67.6,442.3,63,442.3,56z"/>
		<path fill="#FFFFFF" d="M463.9,8.7h14.8v71.9h-14.8V8.7z"/>
		<path fill="#FFFFFF" d="M525.8,65.8c0,11.3-9.8,16.2-20.5,16.2c-9.8,0-17.3-3.7-21.2-11.7l12.8-7.3c1.3,3.7,4,5.8,8.4,5.8
			c3.5,0,5.3-1.1,5.3-3.1c0-5.4-24.2-2.6-24.2-19.6c0-10.7,9.1-16.2,19.3-16.2c8,0,15.1,3.5,19.2,10.5l-12.6,6.8
			c-1.4-2.6-3.3-4.3-6.6-4.3c-2.6,0-4.1,1-4.1,2.8C501.5,51.4,525.8,47.6,525.8,65.8z"/>
	</g>
	<g>
		<path fill="#FD5E69" d="M48.2,47.3c5,23.3-6.3,49.5-26.3,53.8c-20,4.3-41.2-14.8-46.2-38.1C-29.3,39.7-18,13.5,2,9.2
			C22,4.8,43.2,24,48.2,47.3z"/>
		
			<ellipse transform="matrix(-0.2118 -0.9773 0.9773 -0.2118 -32.0228 71.7999)" opacity="0.5" fill="#FFBE02" enable-background="new    " cx="12.9" cy="48.8" rx="38.3" ry="33"/>
		
			<ellipse transform="matrix(-0.2117 -0.9773 0.9773 -0.2117 -24.439 69.1103)" fill="#FFBE02" cx="15.7" cy="44.4" rx="32.3" ry="27.8"/>
	</g>
</g>
</svg>
